<?xml version="1.0" encoding="UTF-8" standalone="no"?>
<svg
   xmlns:dc="http://purl.org/dc/elements/1.1/"
   xmlns:cc="http://creativecommons.org/ns#"
   xmlns:rdf="http://www.w3.org/1999/02/22-rdf-syntax-ns#"
   xmlns:svg="http://www.w3.org/2000/svg"
   xmlns="http://www.w3.org/2000/svg"
   version="1.1"
   id="svg4661"
   viewBox="0 0 1516.7453 933.86535">
  <defs
     id="defs4663" />
  <metadata
     id="metadata4666">
    <rdf:RDF>
      <cc:Work
         rdf:about="">
        <dc:format>image/svg+xml</dc:format>
        <dc:type
           rdf:resource="http://purl.org/dc/dcmitype/StillImage" />
        <dc:title></dc:title>
        <cc:license
           rdf:resource="http://creativecommons.org/publicdomain/zero/1.0/" />
      </cc:Work>
      <cc:License
         rdf:about="http://creativecommons.org/publicdomain/zero/1.0/">
        <cc:permits
           rdf:resource="http://creativecommons.org/ns#Reproduction" />
        <cc:permits
           rdf:resource="http://creativecommons.org/ns#Distribution" />
        <cc:permits
           rdf:resource="http://creativecommons.org/ns#DerivativeWorks" />
      </cc:License>
    </rdf:RDF>
  </metadata>
  <g
     transform="translate(371.2108,-46.956667)"
     style="display:inline"
     id="layer2">
    <path
       id="path5328"
       d="m 946.42857,381.29075 c 24.76014,7.78032 43.9151,26.02507 66.75143,37.15223 24.8025,8.35215 49.0347,18.8372 73.7145,26.63723 15.9064,-2.45255 35.6638,16.92847 11.2222,21.83899 -18.8362,2.76148 -36.0094,11.06467 -54.6626,14.32655 -23.072,3.17743 -45.94318,-1.71456 -69.08594,-1.04513 -24.04201,2.80494 -12.36478,-34.75093 -17.15093,-52.17596 -2.2946,-15.75649 -4.94779,-31.86378 -10.78866,-46.73391 z"
       style="fill:#ffffff;fill-opacity:1;fill-rule:evenodd;stroke:#000000;stroke-width:1px;stroke-linecap:butt;stroke-linejoin:miter;stroke-opacity:1" />
    <path
       id="path5330"
       d="m 559.28571,508.07647 c 9.81128,2.5849 11.46581,17.25455 14.28572,25.71428 1.14443,3.43329 -0.43663,7.97582 0.71428,11.42857 3.1971,9.59128 2.56464,19.83677 5.71429,29.28572 2.75398,8.26194 -1.79132,19.2745 2.14286,27.14286 1.6206,3.24121 -1.15794,8.66906 0,12.14285 2.38698,7.16096 0.12363,18.22806 2.14285,24.28572 3.8812,11.64359 2.85715,25.62986 2.85715,38.57143 0,6.55191 5.93646,28.84136 2.85714,35 -2.62588,5.25175 -3.03656,11.7874 -5.71429,17.14285 -5.14195,10.28392 -19.00603,33.14688 -29.28571,40 -11.21741,7.47828 -24.03345,9.43973 -36.42857,13.57143 -4.6226,1.54087 -11.06383,1.0689 -16.42857,2.85715 -3.42785,1.14261 -7.18534,0.25225 -10.71429,1.42857 -5.65571,1.88524 -12.21914,0.26352 -17.85714,2.14285 -18.39029,6.1301 -31.95391,16.3341 -49.28572,25 -5.75388,2.87695 -12.7551,25.30612 -10.71428,31.42858 2.97,8.91 7.18623,-2.85715 12.14286,-2.85715 0.54253,0 1.23592,3.70777 1.42857,4.28572 0.96724,2.90174 -0.65124,7.98325 0.71428,10.71428 0.62088,1.24176 3.12455,2.58974 2.14286,3.57143 -2.39473,2.39473 10.09839,-7.80795 14.28571,-5.71428 4.08464,2.04231 7.40814,5.56461 12.14286,7.14285 6.04592,2.01531 13.4425,1.42857 20,1.42857 4.85315,0 12.34331,-0.10022 16.42857,-2.14285 3.57454,-1.78727 23.09791,0 27.85715,0 6.49829,0 16.80367,2.01782 22.85714,0 5.92277,-1.97426 12.16946,-2.14286 18.57143,-2.14286 9.28102,0 33.9558,-5.01816 41.42857,-10 7.79038,-5.19359 11.82214,-13.80463 16.42857,-20.71429 6.08099,-9.12148 23.83984,-31.13132 32.85714,-37.14285 7.09607,-4.73071 12.21699,-12.43038 19.28572,-17.14286 11.12746,-7.41831 23.16666,-17.24999 30.71428,-28.57143 5.22299,-7.83448 15.62207,-11.95841 20,-20.71428 1.36409,-2.72817 2.82135,-22.92874 1.42858,-25.71429 -4.9489,-9.89778 -11.42858,-18.95292 -11.42858,-30.71429 0,-6.16127 -1.94099,-16.31986 0,-22.14285 3.37136,-10.11406 13.25619,-16.51237 17.85715,-25.71429 1.77476,-3.54953 2.55835,-7.25956 4.28571,-10.71428 0.52912,-1.05824 0,-3.79075 0,-5 0,-17.54933 -18.31769,-13.77824 -23.57143,-24.28572 -0.95368,-1.90736 -2.05931,-6.89223 -2.85714,-9.28571 -1.95805,-5.87414 -5.04712,-11.52281 -7.85714,-17.14286 -5.06116,-10.12232 -7.80791,-21.33011 -12.85715,-31.42857 -1.5985,-3.19701 -5.50332,-5.29237 -7.14285,-8.57143 -1.13376,-2.26751 -3.39338,-6.30987 -5.71429,-7.85714 -6.5114,-4.34093 -13.77626,-4.36765 -20.71429,-7.14286 -9.40686,-3.76275 -18.33674,-3.81021 -27.85714,-5.71429 -6.58392,-1.31678 -16.84142,0.13762 -22.85714,2.14286 -4.06809,1.35603 -9.39985,-1.0429 -13.57143,0 -8.23031,2.05758 -28.30427,2.50281 -30.71429,12.14286 z"
       style="fill:#ffffff;fill-opacity:1;fill-rule:evenodd;stroke:#000000;stroke-width:1px;stroke-linecap:butt;stroke-linejoin:miter;stroke-opacity:1" />
    <path
       id="path5332"
       d="m -41.428571,500.21932 c -6.774778,-0.15608 -13.164678,5.30754 -17.857143,10 -3.243715,3.24372 -8.127023,5.40482 -10.714286,9.28572 -5.235676,7.85351 -8.005492,16.87362 -10.714286,25 -0.306607,0.91982 -1.83625,1.93732 -2.142857,2.85714 -1.51617,4.54851 -2.084846,9.16969 -4.285714,13.57143 -2.758122,5.51624 -5.260517,12.21012 -7.142857,17.85714 -2.543553,7.63066 -8.971926,13.34434 -11.428576,20.71429 -8.21678,24.65035 -8.57142,51.84515 -8.57142,78.57143 0,5.57239 -1.08741,12.42009 0,17.85714 3.13649,15.68249 8.21453,32.14319 17.857138,45 6.044956,8.05994 16.928199,15.99926 21.428572,25 7.874532,15.74907 11.903017,26.30865 29.285714,35 2.861509,1.43076 4.964111,4.98206 7.857143,6.42857 11.494304,5.74715 22.91026,7.14286 36.4285716,7.14286 6.6214548,0 15.8517744,1.35983 21.4285714,-1.42857 1.363602,-0.6818 3.571429,-1.33259 3.571429,-2.85714 0,-1.82635 -6.131989,-1.63743 -7.142858,-2.14286 -4.698712,-2.34936 -6.8543077,-2.99433 -9.2857138,-7.85714 -0.7778387,-1.55568 -1.4585173,-2.1229 0.7142857,-3.57143 2.3398641,-1.55991 6.4986171,-1.21383 9.2857141,-2.14286 12.35414,-4.11805 33.612948,-9.32723 43.571429,-19.28571 0.336717,-0.33672 0,-0.95239 0,-1.42858 0,-6.5788 -18.212414,-0.53477 -21.428572,-2.14285 -2.388188,-1.1941 10.964387,-8.32133 5,-14.28572 -1.629682,-1.62968 -4.350029,-1.45001 -6.428571,-2.14285 -8.264015,-2.75468 -15.823188,-7.66336 -20.714286,-15 -4.869635,-7.30446 -24.3094558,-33.52395 -19.9999999,-42.14286 3.67517304,-7.35035 15.3700349,-0.44321 19.9999999,0.71428 0.730443,0.18261 2.142857,-0.0386 2.142857,0.71429 0,0.33672 0.563701,-0.41312 0.714286,-0.71429 0.08355,-0.1671 -2.602499,-2.6025 -2.857143,-2.85714 -2.967072,-2.96707 -6.118983,-5.80939 -7.8571427,-9.28571 -0.9473798,-1.89476 7.0670977,-3.41991 7.8571427,-5 0.898223,-1.79645 0.806027,-12.67366 0,-14.28572 -1.789894,-3.57979 -1.9321,-7.89815 -4.285714,-11.42857 -2.161182,-3.24177 -5.3418915,-6.39807 -7.1428573,-10 -4.90164328,-9.80329 -6.757371,-20.85034 -12.8571429,-30 -1.2121661,-1.81825 -5.4460488,-6.96505 -4.2857138,-9.28571 4.7281334,-9.45627 54.614958,-16.37278 60,-27.14286 C 51.371689,573.90452 43.78445,565.43235 40,561.6479 33.214686,554.86258 26.001839,551.50642 18.571429,545.93361 12.57538,541.43657 7.632323,535.06944 1.4285714,530.93361 -4.1396708,527.22145 -9.6785692,523.49611 -15,519.50504 c -8.490524,-6.36789 -19.993925,-10.70619 -26.428571,-19.28572 z"
       style="fill:#ffffff;fill-opacity:1;fill-rule:evenodd;stroke:#000000;stroke-width:1px;stroke-linecap:butt;stroke-linejoin:miter;stroke-opacity:1" />
    <path
       id="path5326"
       d="m -11.428571,148.07647 c 36.73286,10.98887 71.096357,33.19237 109.834708,35.44076 48.025873,8.08791 95.127643,-12.3439 142.308153,-4.01219 49.04623,11.19054 86.56857,50.19779 134.96189,63.55238 48.15628,21.63159 99.52488,21.28595 150.30002,29.91672 40.82295,2.39855 80.26743,13.97099 120.56228,15.38984 49.18356,-1.22239 99.87555,-13.65562 147.65867,7.0566 46.55842,4.15453 80.76656,36.731 116.05132,62.77389 49.31527,15.16014 62.01383,71.9841 55.46582,117.02486 -35.5322,34.0075 -37.51657,94.74329 12.98506,115.54329 24.89985,24.43758 77.55905,28.30341 51.30065,73.02813 10.3118,44.47272 -21.8991,94.39177 2.1958,138.95617 -21.58,33.32234 -69.37758,92.79293 -103.62437,43.90098 -25.59791,7.70276 -50.48003,9.53254 -67.6145,-1.77688 -47.5891,4.20624 7.18649,-76.08151 41.07905,-63.1856 4.74041,-31.44823 63.53421,-94.69579 1.94567,-99.49028 -49.54741,-20.28575 -99.17065,-40.90857 -148.26736,-61.26153 -50.99,-17.14485 -49.05446,-78.06266 -84.28572,-105.71428 -48.71662,-0.56089 -114.6009,-26.26095 -148.43632,21.41507 -23.24746,43.23513 -60.10218,74.59104 -110.48558,77.29907 -49.2098,13.8471 -102.90882,14.165 -149.73224,37.55453 -42.00814,28.61458 -59.58664,82.11928 -87.51618,123.79851 -28.35264,46.43639 -4.71909,120.87152 -49.34125,156.0444 -48.457359,8.9048 -100.89236,20.93318 -141.330182,5.82747 -33.67065,26.4491 -51.479067,-24.33811 -86.015388,-13.36763 -0.3989,-39.03071 47.67543,-50.46601 71.944424,-68.57844 50.391055,15.87903 86.05993,-43.42925 94.066472,-85.48576 C 83.06119,728.83133 83.946603,684.8072 105.71429,645.21933 113.02463,589.43497 43.812576,568.6965 0.34614024,564.61319 -40.425918,534.51053 -52.983388,477.6624 -92.43002,443.43964 c -34.36665,-46.58326 -20.4962,-108.32125 -16.14141,-158.9346 34.050376,-34.56946 96.157226,-26.16667 137.09704,-7.57479 55.005492,8.90039 22.219915,-54.17252 -4.954181,-73.85378 13.407367,-19.41811 -26.1063142,-44.0094 -35,-55 z"
       style="fill:#ffffff;fill-opacity:1;fill-rule:evenodd;stroke:#000000;stroke-width:1px;stroke-linecap:butt;stroke-linejoin:miter;stroke-opacity:1" />
    <path
       id="path5338"
       d="m -237.14286,123.07647 c -20.20981,3.25111 -29.64144,-26.815615 -51.02923,-19.17532 -17.77795,6.24905 -20.17775,36.24655 -9.93532,50.06852 15.16561,15.67675 -10.38139,31.99336 -15.35356,47.52428 -21.32843,3.92924 -2.04447,27.83738 -19.67852,35.97298 -8.24287,19.82501 9.48016,37.37697 16.33948,54.76706 5.92185,13.26999 27.98863,9.80255 18.32617,29.32182 2.23685,16.92002 3.7835,23.15824 22.82315,39.42662 1.67781,21.58947 1.10159,23.69589 4.93704,41.22286 1.76425,15.75743 3.54155,34.3142 17.84139,50.75166 13.17413,15.79886 31.33848,15.9506 48.00944,17.68113 21.62992,0.59794 45.17136,1.26783 64.32358,-10.26368 8.74541,-17.33762 30.28188,-24.6526 36.29331,-42.19712 -2.39992,-27.83517 -6.07515,-57.24752 3.27086,-84.23928 16.345335,-17.68203 -18.7845,-39.16614 4.204834,-52.76354 15.879486,-9.62269 35.479266,-6.24692 52.971894,-10.32811 17.102288,-6.80365 33.771477,1.76223 48.0840563,10.80155 9.9719687,5.52101 18.2822157,4.78849 24.9999997,-2.85715 18.527087,13.30826 38.334945,-1.26992 31.038532,-22.62014 C 56.519868,237.79508 53.418462,215.64494 33.141682,207.55937 20.203865,200.17381 38.121783,176.7758 16.990876,173.15231 11.147734,161.34436 -11.372166,153.33868 -9.9428273,143.40302 -4.4102325,130.4855 -0.86192806,113.95421 -5.7574492,99.408477 -9.9382664,74.305052 -38.609389,81.181805 -49.251123,97.728582 c -15.62741,10.315828 -35.238335,13.931828 -53.619317,16.227618 -25.18866,-3.03192 -50.81709,-9.60493 -76.41527,-6.59402 -19.81041,3.10907 -37.63266,14.59648 -57.85715,15.71429 z"
       style="fill:#ffffff;fill-opacity:1;fill-rule:evenodd;stroke:#000000;stroke-width:1px;stroke-linecap:butt;stroke-linejoin:miter;stroke-opacity:1" />
    <path
       id="path5340"
       d="m -167.14286,210.93361 c -7.61136,6.54072 -14.85474,17.25432 -10.31077,27.54124 4.00571,10.01533 18.03535,13.20926 18.85321,24.91008 2.41493,6.18228 2.519,13.22983 -3.10573,17.76438 -9.39903,9.93017 -24.02714,9.36263 -36.45034,11.91118 -7.53424,1.37573 -15.55585,4.37106 -19.21586,11.68249 -4.43219,8.56561 -12.21217,16.67285 -22.41368,17.08952 -8.86515,-1.13655 -13.61026,-10.16882 -17.35683,-17.32746 -3.6467,-5.16137 -9.13153,-8.6873 -13.60562,-13.10479 -5.77462,-5.28742 -12.40197,-9.86086 -17.10866,-16.18093 -2.22355,-6.79112 -3.79516,-15.15177 1.20616,-21.16172 5.01332,-9.08083 14.93029,-13.14881 23.79384,-17.4097 4.74126,-5.02053 11.7527,-7.24173 17.56685,-10.91827 9.40918,-4.45861 10.23421,-17.74212 20.2078,-21.52589 11.90652,-5.72345 25.73521,-10.96692 38.93814,-6.61695 7.66332,-1.83717 13.14661,4.29043 16.98173,10.04224 0.73355,1.06251 1.4365,2.15101 2.01976,3.30458 z"
       style="fill:#ffffff;fill-opacity:1;fill-rule:evenodd;stroke:#000000;stroke-width:1px;stroke-linecap:butt;stroke-linejoin:miter;stroke-opacity:1" />
    <path
       id="path5471"
       d="m -267.72656,209.14062 c -1.9966,-0.0272 -3.99116,-0.0918 -5.98438,-0.20312 -2.10695,0.0572 -4.1689,0.62039 -6.21094,1.10156 -1.71947,0.98726 -3.53132,1.83053 -5.16015,2.97071 -2.71595,1.91106 -5.09795,4.26553 -7.10938,6.90234 -0.65954,0.66132 -2.43463,0.79281 -0.89648,1.8125 2.21392,2.18983 4.31109,4.55633 7.05469,6.11133 3.50279,2.45586 7.98553,1.81874 12.00976,1.7832 3.21542,-0.0719 6.43889,0.0147 9.64844,-0.0254 1.27685,-0.26879 2.58945,-0.41909 3.88477,-0.63086 a 14.107142,10.625 0 0 1 -0.22461,0.006 14.107142,10.625 0 0 1 -1.40821,-0.0527 14.107142,10.625 0 0 1 -1.39453,-0.15821 14.107142,10.625 0 0 1 -1.36523,-0.26367 14.107142,10.625 0 0 1 -1.32422,-0.36328 14.107142,10.625 0 0 1 -1.27149,-0.46289 14.107142,10.625 0 0 1 -1.20117,-0.55469 14.107142,10.625 0 0 1 -1.12304,-0.64258 14.107142,10.625 0 0 1 -1.03125,-0.72461 14.107142,10.625 0 0 1 -0.93164,-0.79687 14.107142,10.625 0 0 1 -0.82032,-0.86328 14.107142,10.625 0 0 1 -0.70117,-0.92188 14.107142,10.625 0 0 1 -0.57617,-0.96875 14.107142,10.625 0 0 1 -0.44336,-1.00976 14.107142,10.625 0 0 1 -0.30859,-1.03516 14.107142,10.625 0 0 1 -0.16993,-1.05469 14.107142,10.625 0 0 1 -0.0371,-0.75195 14.107142,10.625 0 0 1 0.0723,-1.06055 14.107142,10.625 0 0 1 0.20898,-1.04882 14.107142,10.625 0 0 1 0.34961,-1.0293 14.107142,10.625 0 0 1 0.48438,-0.99805 14.107142,10.625 0 0 1 0.61328,-0.95703 14.107142,10.625 0 0 1 0.73633,-0.9043 14.107142,10.625 0 0 1 0.85351,-0.8457 14.107142,10.625 0 0 1 0.96094,-0.77734 14.107142,10.625 0 0 1 1.05859,-0.70118 14.107142,10.625 0 0 1 1.14844,-0.61718 14.107142,10.625 0 0 1 0.60938,-0.26368 z"
       style="fill:#ffffff;fill-opacity:1;fill-rule:evenodd;stroke:#000000;stroke-width:1px;stroke-linecap:butt;stroke-linejoin:miter;stroke-opacity:1" />
    <path
       id="path5476"
       d="m -269.24609,209.89453 a 14.107142,10.625 0 0 0 -0.23829,0.12695 14.107142,10.625 0 0 0 -1.05859,0.70118 14.107142,10.625 0 0 0 -0.96094,0.77734 14.107142,10.625 0 0 0 -0.85351,0.8457 14.107142,10.625 0 0 0 -0.73633,0.9043 14.107142,10.625 0 0 0 -0.61328,0.95703 14.107142,10.625 0 0 0 -0.48438,0.99805 14.107142,10.625 0 0 0 -0.34961,1.0293 14.107142,10.625 0 0 0 -0.20898,1.04882 14.107142,10.625 0 0 0 -0.0723,1.06055 14.107142,10.625 0 0 0 0.0371,0.75195 14.107142,10.625 0 0 0 0.16993,1.05469 14.107142,10.625 0 0 0 0.30859,1.03516 14.107142,10.625 0 0 0 0.44336,1.00976 14.107142,10.625 0 0 0 0.57617,0.96875 14.107142,10.625 0 0 0 0.70117,0.92188 14.107142,10.625 0 0 0 0.82032,0.86328 14.107142,10.625 0 0 0 0.93164,0.79687 14.107142,10.625 0 0 0 1.03125,0.72461 14.107142,10.625 0 0 0 1.12304,0.64258 14.107142,10.625 0 0 0 1.20117,0.55469 14.107142,10.625 0 0 0 1.27149,0.46289 14.107142,10.625 0 0 0 1.32422,0.36328 14.107142,10.625 0 0 0 1.36523,0.26367 14.107142,10.625 0 0 0 1.39453,0.15821 14.107142,10.625 0 0 0 1.40821,0.0527 14.107142,10.625 0 0 0 0.22461,-0.006 c 0.83982,-0.1373 1.6805,-0.26874 2.4707,-0.58203 1.51917,-0.78203 3.28427,-1.03619 4.63086,-2.17188 1.3311,-1.13654 3.07732,-1.90627 4.01172,-3.42773 0.99051,-1.65494 1.64847,-3.48915 2.74023,-5.07422 a 14.107142,10.625 0 0 0 -0.006,-0.11523 14.107142,10.625 0 0 0 -0.16992,-1.05274 14.107142,10.625 0 0 0 -0.30859,-1.03711 14.107142,10.625 0 0 0 -0.33008,-0.74804 c -0.58025,-0.35003 -1.20816,-0.60125 -1.83985,-0.84375 a 10.535714,9.375 0 0 1 0.006,0.14843 10.535714,9.375 0 0 1 -0.0527,0.93555 10.535714,9.375 0 0 1 -0.1582,0.92774 10.535714,9.375 0 0 1 -0.25977,0.9082 10.535714,9.375 0 0 1 -0.36133,0.8789 10.535714,9.375 0 0 1 -0.45898,0.84375 10.535714,9.375 0 0 1 -0.54883,0.79883 10.535714,9.375 0 0 1 -0.63867,0.7461 10.535714,9.375 0 0 1 -0.7168,0.68554 10.535714,9.375 0 0 1 -0.79101,0.61914 10.535714,9.375 0 0 1 -0.85743,0.54493 10.535714,9.375 0 0 1 -0.91406,0.46679 10.535714,9.375 0 0 1 -0.96094,0.38282 10.535714,9.375 0 0 1 -1,0.29492 10.535714,9.375 0 0 1 -1.02734,0.20508 10.535714,9.375 0 0 1 -1.04492,0.11328 10.535714,9.375 0 0 1 -0.7461,0.0234 10.535714,9.375 0 0 1 -1.05078,-0.0469 10.535714,9.375 0 0 1 -1.04101,-0.14063 10.535714,9.375 0 0 1 -1.02149,-0.23047 10.535714,9.375 0 0 1 -0.98828,-0.32226 10.535714,9.375 0 0 1 -0.94922,-0.4082 10.535714,9.375 0 0 1 -0.89648,-0.48828 10.535714,9.375 0 0 1 -0.83985,-0.56836 10.535714,9.375 0 0 1 -0.76953,-0.63868 10.535714,9.375 0 0 1 -0.69531,-0.70312 10.535714,9.375 0 0 1 -0.61328,-0.76367 10.535714,9.375 0 0 1 -0.52344,-0.8125 10.535714,9.375 0 0 1 -0.42968,-0.85547 10.535714,9.375 0 0 1 -0.33204,-0.88867 10.535714,9.375 0 0 1 -0.23046,-0.91407 10.535714,9.375 0 0 1 -0.12696,-0.92968 10.535714,9.375 0 0 1 -0.0273,-0.66407 10.535714,9.375 0 0 1 0.0527,-0.93554 10.535714,9.375 0 0 1 0.15821,-0.92774 10.535714,9.375 0 0 1 0.25976,-0.90625 10.535714,9.375 0 0 1 0.36133,-0.88086 10.535714,9.375 0 0 1 0.2793,-0.51367 z"
       style="fill:#f8c14d;fill-opacity:1;fill-rule:evenodd;stroke:#000000;stroke-width:1px;stroke-linecap:butt;stroke-linejoin:miter;stroke-opacity:1" />
    <path
       id="path5346"
       d="m -269.24609,209.89453 a 10.535714,9.375 0 0 0 -0.2793,0.51367 10.535714,9.375 0 0 0 -0.36133,0.88086 10.535714,9.375 0 0 0 -0.25976,0.90625 10.535714,9.375 0 0 0 -0.15821,0.92774 10.535714,9.375 0 0 0 -0.0527,0.93554 10.535714,9.375 0 0 0 0.0273,0.66407 10.535714,9.375 0 0 0 0.12696,0.92968 10.535714,9.375 0 0 0 0.23046,0.91407 10.535714,9.375 0 0 0 0.33204,0.88867 10.535714,9.375 0 0 0 0.42968,0.85547 10.535714,9.375 0 0 0 0.52344,0.8125 10.535714,9.375 0 0 0 0.61328,0.76367 10.535714,9.375 0 0 0 0.69531,0.70312 10.535714,9.375 0 0 0 0.76953,0.63868 10.535714,9.375 0 0 0 0.83985,0.56836 10.535714,9.375 0 0 0 0.89648,0.48828 10.535714,9.375 0 0 0 0.94922,0.4082 10.535714,9.375 0 0 0 0.98828,0.32226 10.535714,9.375 0 0 0 1.02149,0.23047 10.535714,9.375 0 0 0 1.04101,0.14063 10.535714,9.375 0 0 0 1.05078,0.0469 10.535714,9.375 0 0 0 0.7461,-0.0234 10.535714,9.375 0 0 0 1.04492,-0.11328 10.535714,9.375 0 0 0 1.02734,-0.20508 10.535714,9.375 0 0 0 1,-0.29492 10.535714,9.375 0 0 0 0.96094,-0.38282 10.535714,9.375 0 0 0 0.91406,-0.46679 10.535714,9.375 0 0 0 0.85743,-0.54493 10.535714,9.375 0 0 0 0.79101,-0.61914 10.535714,9.375 0 0 0 0.7168,-0.68554 10.535714,9.375 0 0 0 0.63867,-0.7461 10.535714,9.375 0 0 0 0.54883,-0.79883 10.535714,9.375 0 0 0 0.45898,-0.84375 10.535714,9.375 0 0 0 0.36133,-0.8789 10.535714,9.375 0 0 0 0.25977,-0.9082 10.535714,9.375 0 0 0 0.1582,-0.92774 10.535714,9.375 0 0 0 0.0527,-0.93555 10.535714,9.375 0 0 0 -0.006,-0.14843 c -0.24466,-0.0939 -0.45022,-0.27098 -0.71289,-0.32618 -1.7058,-1.25652 -3.6669,-1.91588 -5.57031,-2.80078 -2.3296,-0.9374 -4.88908,-1.00035 -7.33203,-1.47851 -1.6008,-0.17426 -3.21208,-0.14213 -4.82031,-0.16407 a 14.107142,10.625 0 0 0 -0.60938,0.26368 14.107142,10.625 0 0 0 -0.91015,0.49023 z"
       style="fill:#000000;fill-opacity:1;fill-rule:evenodd;stroke:#000000;stroke-width:1px;stroke-linecap:butt;stroke-linejoin:miter;stroke-opacity:1" />
    <path
       id="path5463"
       d="m -112.24414,213.44727 c 3.92918,-1.18638 7.73152,-2.72925 11.19726,-5 1.631207,-1.2529 4.442366,-3.32795 4.220708,-5.29688 -2.82583,-0.80032 -5.786088,-1.08198 -8.593748,-2 -2.95683,-0.63546 -5.79265,-1.65891 -8.66406,-2.5 -0.18195,-0.0456 -0.3722,-0.0326 -0.55469,-0.0742 a 19.464285,12.767858 0 0 1 0.77929,0.58203 19.464285,12.767858 0 0 1 1.13086,1.03711 19.464285,12.767858 0 0 1 0.96875,1.10742 19.464285,12.767858 0 0 1 0.79493,1.16602 19.464285,12.767858 0 0 1 0.61328,1.21094 19.464285,12.767858 0 0 1 0.42578,1.24414 19.464285,12.767858 0 0 1 0.23437,1.26758 19.464285,12.767858 0 0 1 0.0488,0.90234 19.464285,12.767858 0 0 1 -0.0977,1.27539 19.464285,12.767858 0 0 1 -0.29102,1.26172 19.464285,12.767858 0 0 1 -0.48047,1.23633 19.464285,12.767858 0 0 1 -0.66797,1.19922 19.464285,12.767858 0 0 1 -0.8457,1.14843 19.464285,12.767858 0 0 1 -0.21875,0.23243 z"
       style="fill:#ffffff;fill-opacity:1;fill-rule:evenodd;stroke:#000000;stroke-width:1px;stroke-linecap:butt;stroke-linejoin:miter;stroke-opacity:1" />
    <path
       id="path5461"
       d="m -146.1543,200.93359 c -1.48123,0.62093 -2.98289,1.2035 -4.42773,1.87305 -5.84292,2.77873 -12.13076,6.08851 -14.95703,12.26563 -3.4138,1.11692 2.27646,3.29007 3.42383,3.65039 3.54173,0.87647 7.2179,0.38937 10.83007,0.51562 2.4094,0.1625 4.7827,0.0729 7.14063,-0.5039 1.76324,-0.21189 3.53449,-0.43549 5.31055,-0.59376 a 19.464285,12.767858 0 0 1 -1.26368,-0.50781 19.464285,12.767858 0 0 1 -1.54882,-0.77343 19.464285,12.767858 0 0 1 -1.42383,-0.86915 19.464285,12.767858 0 0 1 -1.28321,-0.95898 19.464285,12.767858 0 0 1 -1.13281,-1.03906 19.464285,12.767858 0 0 1 -0.96679,-1.10547 19.464285,12.767858 0 0 1 -0.79493,-1.16602 19.464285,12.767858 0 0 1 -0.61328,-1.21093 19.464285,12.767858 0 0 1 -0.42773,-1.2461 19.464285,12.767858 0 0 1 -0.23438,-1.26562 19.464285,12.767858 0 0 1 -0.0488,-0.9043 19.464285,12.767858 0 0 1 0.0977,-1.27344 19.464285,12.767858 0 0 1 0.29102,-1.26172 19.464285,12.767858 0 0 1 0.48242,-1.23828 19.464285,12.767858 0 0 1 0.66601,-1.19726 19.464285,12.767858 0 0 1 0.84571,-1.15039 19.464285,12.767858 0 0 1 0.0351,-0.0391 z"
       style="fill:#ffffff;fill-opacity:1;fill-rule:evenodd;stroke:#000000;stroke-width:1px;stroke-linecap:butt;stroke-linejoin:miter;stroke-opacity:1" />
    <path
       id="path5468"
       d="m -134.80664,197.67383 c -0.12172,10e-4 -0.24352,0.003 -0.36524,0.004 -3.81555,0.45032 -7.43553,1.76903 -10.98242,3.25586 a 19.464285,12.767858 0 0 0 -0.0351,0.0391 19.464285,12.767858 0 0 0 -0.84571,1.15039 19.464285,12.767858 0 0 0 -0.66601,1.19726 19.464285,12.767858 0 0 0 -0.48242,1.23828 19.464285,12.767858 0 0 0 -0.29102,1.26172 19.464285,12.767858 0 0 0 -0.0977,1.27344 19.464285,12.767858 0 0 0 0.0488,0.9043 19.464285,12.767858 0 0 0 0.23438,1.26562 19.464285,12.767858 0 0 0 0.42773,1.2461 19.464285,12.767858 0 0 0 0.61328,1.21093 19.464285,12.767858 0 0 0 0.79493,1.16602 19.464285,12.767858 0 0 0 0.96679,1.10547 19.464285,12.767858 0 0 0 1.13281,1.03906 19.464285,12.767858 0 0 0 1.28321,0.95898 19.464285,12.767858 0 0 0 1.42383,0.86915 19.464285,12.767858 0 0 0 1.54882,0.77343 19.464285,12.767858 0 0 0 1.26368,0.50781 c 1.98775,-0.17713 3.97911,-0.29552 5.94336,-0.66601 2.56183,-0.43225 5.13979,-0.90332 7.76367,-1.0918 4.30034,-0.80207 8.66543,-1.66215 12.88281,-2.93554 a 19.464285,12.767858 0 0 0 0.21875,-0.23243 19.464285,12.767858 0 0 0 0.8457,-1.14843 19.464285,12.767858 0 0 0 0.66797,-1.19922 19.464285,12.767858 0 0 0 0.48047,-1.23633 19.464285,12.767858 0 0 0 0.29102,-1.26172 19.464285,12.767858 0 0 0 0.0977,-1.27539 19.464285,12.767858 0 0 0 -0.0488,-0.90234 19.464285,12.767858 0 0 0 -0.23437,-1.26758 19.464285,12.767858 0 0 0 -0.42578,-1.24414 19.464285,12.767858 0 0 0 -0.61328,-1.21094 19.464285,12.767858 0 0 0 -0.79493,-1.16602 19.464285,12.767858 0 0 0 -0.96875,-1.10742 19.464285,12.767858 0 0 0 -1.13086,-1.03711 19.464285,12.767858 0 0 0 -0.77929,-0.58203 c -2.56478,-0.5853 -5.17321,-0.84911 -7.79688,-1.03515 -0.0488,6.1e-4 -0.0976,0.001 -0.14648,0.002 a 11.071428,8.9285717 0 0 1 0.26172,0.12891 11.071428,8.9285717 0 0 1 0.88086,0.53906 11.071428,8.9285717 0 0 1 0.81054,0.60937 11.071428,8.9285717 0 0 1 0.73047,0.66992 11.071428,8.9285717 0 0 1 0.64258,0.72657 11.071428,8.9285717 0 0 1 0.55078,0.77343 11.071428,8.9285717 0 0 1 0.45313,0.81446 11.071428,8.9285717 0 0 1 0.34765,0.84765 11.071428,8.9285717 0 0 1 0.24414,0.8711 11.071428,8.9285717 0 0 1 0.13282,0.88476 11.071428,8.9285717 0 0 1 0.0273,0.63282 11.071428,8.9285717 0 0 1 -0.0547,0.89062 11.071428,8.9285717 0 0 1 -0.16601,0.88281 11.071428,8.9285717 0 0 1 -0.27344,0.86524 11.071428,8.9285717 0 0 1 -0.37891,0.83789 11.071428,8.9285717 0 0 1 -0.48242,0.80469 11.071428,8.9285717 0 0 1 -0.57812,0.75976 11.071428,8.9285717 0 0 1 -0.66993,0.71094 11.071428,8.9285717 0 0 1 -0.7539,0.65234 11.071428,8.9285717 0 0 1 -0.83203,0.58985 11.071428,8.9285717 0 0 1 -0.90039,0.51953 11.071428,8.9285717 0 0 1 -0.95899,0.44336 11.071428,8.9285717 0 0 1 -1.01172,0.36523 11.071428,8.9285717 0 0 1 -1.04883,0.28125 11.071428,8.9285717 0 0 1 -1.08007,0.19531 11.071428,8.9285717 0 0 1 -1.09961,0.10743 11.071428,8.9285717 0 0 1 -0.78321,0.0215 11.071428,8.9285717 0 0 1 -1.10351,-0.0449 11.071428,8.9285717 0 0 1 -1.0957,-0.13281 11.071428,8.9285717 0 0 1 -1.07227,-0.22071 11.071428,8.9285717 0 0 1 -1.03906,-0.30664 11.071428,8.9285717 0 0 1 -0.9961,-0.38672 11.071428,8.9285717 0 0 1 -0.94336,-0.46679 11.071428,8.9285717 0 0 1 -0.88085,-0.54102 11.071428,8.9285717 0 0 1 -0.81055,-0.60742 11.071428,8.9285717 0 0 1 -0.73047,-0.66992 11.071428,8.9285717 0 0 1 -0.64453,-0.72657 11.071428,8.9285717 0 0 1 -0.54883,-0.77539 11.071428,8.9285717 0 0 1 -0.45312,-0.81445 11.071428,8.9285717 0 0 1 -0.34961,-0.8457 11.071428,8.9285717 0 0 1 -0.24219,-0.8711 11.071428,8.9285717 0 0 1 -0.13281,-0.88671 11.071428,8.9285717 0 0 1 -0.0274,-0.63086 11.071428,8.9285717 0 0 1 0.0547,-0.89258 11.071428,8.9285717 0 0 1 0.16601,-0.88086 11.071428,8.9285717 0 0 1 0.27344,-0.86524 11.071428,8.9285717 0 0 1 0.37891,-0.83789 11.071428,8.9285717 0 0 1 0.48242,-0.80468 11.071428,8.9285717 0 0 1 0.57813,-0.75977 11.071428,8.9285717 0 0 1 0.66992,-0.71094 11.071428,8.9285717 0 0 1 0.7539,-0.65234 11.071428,8.9285717 0 0 1 0.83204,-0.58984 11.071428,8.9285717 0 0 1 0.64648,-0.37305 z"
       style="fill:#f8c14d;fill-opacity:1;fill-rule:evenodd;stroke:#000000;stroke-width:1px;stroke-linecap:butt;stroke-linejoin:miter;stroke-opacity:1" />
    <path
       id="path5348"
       d="m -134.80664,197.67383 a 11.071428,8.9285717 0 0 0 -0.64648,0.37305 11.071428,8.9285717 0 0 0 -0.83204,0.58984 11.071428,8.9285717 0 0 0 -0.7539,0.65234 11.071428,8.9285717 0 0 0 -0.66992,0.71094 11.071428,8.9285717 0 0 0 -0.57813,0.75977 11.071428,8.9285717 0 0 0 -0.48242,0.80468 11.071428,8.9285717 0 0 0 -0.37891,0.83789 11.071428,8.9285717 0 0 0 -0.27344,0.86524 11.071428,8.9285717 0 0 0 -0.16601,0.88086 11.071428,8.9285717 0 0 0 -0.0547,0.89258 11.071428,8.9285717 0 0 0 0.0274,0.63086 11.071428,8.9285717 0 0 0 0.13281,0.88671 11.071428,8.9285717 0 0 0 0.24219,0.8711 11.071428,8.9285717 0 0 0 0.34961,0.8457 11.071428,8.9285717 0 0 0 0.45312,0.81445 11.071428,8.9285717 0 0 0 0.54883,0.77539 11.071428,8.9285717 0 0 0 0.64453,0.72657 11.071428,8.9285717 0 0 0 0.73047,0.66992 11.071428,8.9285717 0 0 0 0.81055,0.60742 11.071428,8.9285717 0 0 0 0.88085,0.54102 11.071428,8.9285717 0 0 0 0.94336,0.46679 11.071428,8.9285717 0 0 0 0.9961,0.38672 11.071428,8.9285717 0 0 0 1.03906,0.30664 11.071428,8.9285717 0 0 0 1.07227,0.22071 11.071428,8.9285717 0 0 0 1.0957,0.13281 11.071428,8.9285717 0 0 0 1.10351,0.0449 11.071428,8.9285717 0 0 0 0.78321,-0.0215 11.071428,8.9285717 0 0 0 1.09961,-0.10743 11.071428,8.9285717 0 0 0 1.08007,-0.19531 11.071428,8.9285717 0 0 0 1.04883,-0.28125 11.071428,8.9285717 0 0 0 1.01172,-0.36523 11.071428,8.9285717 0 0 0 0.95899,-0.44336 11.071428,8.9285717 0 0 0 0.90039,-0.51953 11.071428,8.9285717 0 0 0 0.83203,-0.58985 11.071428,8.9285717 0 0 0 0.7539,-0.65234 11.071428,8.9285717 0 0 0 0.66993,-0.71094 11.071428,8.9285717 0 0 0 0.57812,-0.75976 11.071428,8.9285717 0 0 0 0.48242,-0.80469 11.071428,8.9285717 0 0 0 0.37891,-0.83789 11.071428,8.9285717 0 0 0 0.27344,-0.86524 11.071428,8.9285717 0 0 0 0.16601,-0.88281 11.071428,8.9285717 0 0 0 0.0547,-0.89062 11.071428,8.9285717 0 0 0 -0.0273,-0.63282 11.071428,8.9285717 0 0 0 -0.13282,-0.88476 11.071428,8.9285717 0 0 0 -0.24414,-0.8711 11.071428,8.9285717 0 0 0 -0.34765,-0.84765 11.071428,8.9285717 0 0 0 -0.45313,-0.81446 11.071428,8.9285717 0 0 0 -0.55078,-0.77343 11.071428,8.9285717 0 0 0 -0.64258,-0.72657 11.071428,8.9285717 0 0 0 -0.73047,-0.66992 11.071428,8.9285717 0 0 0 -0.81054,-0.60937 11.071428,8.9285717 0 0 0 -0.88086,-0.53906 11.071428,8.9285717 0 0 0 -0.26172,-0.12891 c -4.07477,0.0507 -8.15051,0.0851 -12.22461,0.13086 z"
       style="fill:#000000;fill-opacity:1;fill-rule:evenodd;stroke:#000000;stroke-width:1px;stroke-linecap:butt;stroke-linejoin:miter;stroke-opacity:1" />
    <path
       id="path5350"
       d="m -270.21581,359.90261 c 7.08292,1.66012 14.65774,1.01015 21.97082,1.01015 4.42264,0 12.66372,0.80077 16.66752,0 6.24558,-1.24911 12.61381,-2.01703 18.68782,-3.53553 3.56708,-0.89177 7.38537,-0.86238 10.85914,-2.0203 1.67244,-0.55749 3.62217,-0.0848 5.3033,-0.50508 6.10318,-1.52579 14.41175,-1.01869 19.95051,-3.78807 2.39174,-1.19587 6.44711,-0.31937 8.83884,-1.51523 0.4714,-0.2357 1.29636,0.2357 1.76777,0 2.45736,-1.22868 7.64416,-0.79162 10.10152,-2.02031 1.0479,-0.52394 2.48764,-0.23366 3.53554,-0.75761 1.51638,-0.7582 3.28183,-1.51465 4.79822,-2.27284 0.86096,-0.43048 2.1695,-0.32714 3.03046,-0.75762 1.09115,-0.54557 2.28108,-1.45415 3.53553,-1.76777 0.21325,-0.0533 0.78939,0.11039 1.01015,0 3.9448,-1.97239 8.01112,-3.42798 12.12183,-4.79822 2.80902,-0.93634 4.99287,-3.25405 7.57615,-4.54569 0.78956,-0.39478 7.25736,-4.35939 7.3236,-4.29315 0.59699,0.59699 -6.06121,3.53569 -6.56599,3.78808 -3.11492,1.55746 -6.52922,4.50892 -9.09137,7.07106 -2.92541,2.92541 -6.58055,5.98645 -10.10153,8.33376 -1.06179,0.70786 -1.8832,1.95176 -3.03045,2.52538 -5.65534,2.82768 -11.06237,6.02805 -16.41498,9.59645 -3.07362,2.04908 -6.80525,3.52557 -9.84899,5.80838 -5.844,4.383 -11.75261,8.17179 -17.67767,12.12183 -3.39298,2.26199 -7.61893,2.0417 -11.11168,3.78807 -1.71598,0.85799 -6.64249,0.0191 -8.58629,0.50508 -4.09344,1.02336 -8.53347,0.74441 -12.62691,1.76777 -2.41766,0.60441 -5.4737,-0.785 -7.82868,0 -2.06523,0.68841 -20.70056,0.76013 -22.98097,0 -4.52138,-1.50713 -14.58846,-14.02464 -16.66752,-18.18275 -0.99821,-1.99642 -3.2155,-3.78226 -4.54569,-5.55584 z"
       style="fill:none;fill-rule:evenodd;stroke:#000000;stroke-width:1px;stroke-linecap:butt;stroke-linejoin:miter;stroke-opacity:1" />
    <path
       id="path5352"
       d="m -134.85536,342.22494 c 0.76091,6.21411 1.67821,12.55426 2.1325,18.69562 0.64901,5.73254 2.26143,11.40361 2.77748,17.2284 0.60477,4.7622 2.35346,9.29121 2.38221,14.1815 1.67982,5.35736 1.80282,11.1311 4.40706,16.27436 1.25067,5.30343 3.16284,10.54471 3.70557,15.94756 2.93894,5.54464 3.98569,11.74208 5.85613,17.64963 1.47511,6.83504 3.63373,13.58571 3.59682,20.67084 -0.14613,6.82805 1.18484,14.00632 -1.23043,20.55304 -3.10123,6.35575 -10.32304,0.52531 -12.23931,-3.7784 -3.6032,-5.03261 -4.94184,-11.24196 -8.61012,-16.20424 -2.3358,-4.65506 -4.1684,-9.29521 -6.07956,-14.13361 -1.76867,-5.16553 -4.33504,-10.01294 -5.99347,-15.22896 -1.50217,-4.41158 -2.97711,-8.77058 -4.08941,-13.31638 -2.73583,-5.79883 -3.17933,-12.27646 -5.41607,-18.19807 -2.50657,-3.97678 -3.64852,-8.57502 -5.59601,-12.86923 -2.64558,-4.77979 -2.42545,-10.49018 -4.66821,-15.41796 -0.18556,-5.89492 -0.27216,-11.74476 -1.76641,-17.48869 -1.6836,-4.84057 -1.11544,-10.57543 5.3142,-10.21402 8.55673,-0.8624 16.27151,-5.38982 25.01195,-5.109"
       style="fill:#ffffff;fill-opacity:1;fill-rule:evenodd;stroke:#000000;stroke-width:1px;stroke-linecap:butt;stroke-linejoin:miter;stroke-opacity:1" />
    <path
       id="path5366"
       d="m 28.571429,279.1479 c 0.298803,-4.81366 -3.359438,-8.55204 -4.509793,-13.02104 -4.672697,-11.67153 -16.2303385,-19.29579 -28.1098658,-22.15458 -7.3666342,-1.38583 -14.9392362,-1.02037 -22.3003732,-2.49556 -9.994974,-1.32321 -20.668729,-1.55414 -29.981056,2.85054 -0.637815,0.10842 -1.375595,0.0426 -1.884627,0.53492"
       style="fill:none;fill-rule:evenodd;stroke:#000000;stroke-width:1px;stroke-linecap:butt;stroke-linejoin:miter;stroke-opacity:1" />
    <path
       id="path5368"
       d="m 28.928571,204.86218 c -15.650025,-7.10645 -33.4111982,-7.76383 -50.293549,-7.66044 -8.855495,1.25665 -17.081253,5.02432 -25.777879,6.94616"
       style="fill:none;fill-rule:evenodd;stroke:#000000;stroke-width:1px;stroke-linecap:butt;stroke-linejoin:miter;stroke-opacity:1" />
    <path
       id="path5370"
       d="m -40,176.29075 c 15.937144,-6.73918 34.063055,-0.66613 49.389561,4.85148 6.256804,3.33729 12.597339,7.3432 19.896153,7.64852"
       style="fill:none;fill-rule:evenodd;stroke:#000000;stroke-width:1px;stroke-linecap:butt;stroke-linejoin:miter;stroke-opacity:1" />
    <path
       id="path5372"
       d="m -8.2142857,96.647895 c -4.4324183,-2.877503 -10.3420393,-0.680375 -12.9992563,3.569235 -4.124529,5.49017 -6.88118,11.86791 -10.814455,17.47984 -4.473174,8.79389 -4.971261,20.28149 -13.520905,26.50937 -3.658117,0.78514 -9.10846,6.10091 -2.493036,6.94492 5.225282,0.14301 10.1116,2.12008 15.158857,3.33195 9.988081,2.8148 19.699583,7.51966 26.7942488,15.268 2.6356879,2.40618 5.21760163,4.87087 7.8745465,7.25383"
       style="fill:none;fill-rule:evenodd;stroke:#000000;stroke-width:1px;stroke-linecap:butt;stroke-linejoin:miter;stroke-opacity:1" />
    <path
       id="path5374"
       d="m -161.78571,194.1479 c 2.33239,-1.95078 5.8824,-1.94375 7.84768,-4.3108 2.754,-2.25075 6.12295,-3.60088 8.99824,-5.65209 2.05789,-2.31229 4.93784,-3.55552 7.90909,-4.21241 10.06993,-2.41603 20.49488,-1.55987 30.74013,-2.21209 3.18421,-0.18481 6.352373,0.6529 8.947654,2.52415 3.320432,2.2335 6.694698,4.43156 9.788517,6.96851 2.748384,2.39034 4.796688,5.82428 8.268685,7.25187"
       style="fill:none;fill-rule:evenodd;stroke:#000000;stroke-width:1px;stroke-linecap:butt;stroke-linejoin:miter;stroke-opacity:1" />
    <path
       id="path5376"
       d="m -243.57143,209.1479 c -6.64738,-2.98409 -12.50004,-7.4457 -19.07274,-10.56292 -4.08875,-1.07207 -8.45869,-0.16353 -12.50554,-1.51247 -2.70455,-0.3769 -5.62838,-0.91156 -8.21305,0.2523 -3.51293,0.58729 -6.40508,2.85393 -9.36888,4.67623 -3.16618,2.07779 -6.02676,4.61265 -9.44033,6.30076 -0.75196,0.44989 -1.49031,0.93942 -2.11374,1.56038"
       style="fill:none;fill-rule:evenodd;stroke:#000000;stroke-width:1px;stroke-linecap:butt;stroke-linejoin:miter;stroke-opacity:1" />
    <path
       id="path5378"
       d="m -293.92857,301.6479 c 4.36057,-3.22659 7.70917,-8.25354 7.70166,-13.81938 0.0455,-7.08172 -4.32399,-13.44553 -9.71276,-17.69502 -2.675,-2.22969 -5.92627,-3.55055 -8.79447,-5.48733 -2.0085,-1.28587 -4.92784,-2.23433 -6.94388,-0.43946 -1.28195,1.14872 -2.45195,2.57526 -3.01841,4.20012 0.18999,1.87163 -1.29023,3.56177 -1.10642,5.52269 -0.20436,5.05753 2.71886,9.42347 4.69761,13.86043 0.92305,2.2581 1.81723,4.62046 3.60524,6.35795"
       style="fill:none;fill-rule:evenodd;stroke:#000000;stroke-width:1px;stroke-linecap:butt;stroke-linejoin:miter;stroke-opacity:1" />
    <path
       id="path5427"
       d="m -275.74101,359.66276 c -0.3797,19.83316 1.51177,40.69713 6.83337,59.25047 1.67132,10.84741 4.62787,21.22339 8.1423,31.59054 4.45193,11.13679 11.05557,21.3805 18.68663,30.582 4.50168,4.72039 9.38903,11.26344 16.65353,10.79842 0.3983,-1.95801 -3.55773,-6.12197 -4.13982,-9.30733 -11.5343,-33.72544 -15.13194,-70.73942 -20.85445,-101.9056 -1.79696,-6.052 -0.14678,-13.70322 -2.85661,-19.43848 -5.92266,-2.04586 -16.68413,0.58451 -22.46495,-1.57002 z"
       style="fill:#ffffff;fill-opacity:1;fill-rule:evenodd;stroke:#000000;stroke-width:1px;stroke-linecap:butt;stroke-linejoin:miter;stroke-opacity:1" />
  </g>
</svg>
